<svg xmlns="http://www.w3.org/2000/svg" x="0px" y="0px" width="100" height="100" viewBox="0 0 24 24">
<path fill="#ffffff" d="M 13.632812 1 C 13.245812 1 12.894516 1.2213125 12.728516 1.5703125 C 12.662932 1.7080137 12.365748 2.3321453 12.279297 2.5136719 C 12.185765 2.5109346 12.094182 2.5 12 2.5 C 6.762347 2.5 2.5 6.762347 2.5 12 C 2.5 13.514227 2.8566729 14.950254 3.4902344 16.222656 A 0.50005 0.50005 0 1 0 4.3847656 15.777344 C 3.8183271 14.639746 3.5 13.357773 3.5 12 C 3.5 7.3696148 7.1995926 3.6145459 11.804688 3.5097656 C 9.875553 7.5606105 5.4137787 16.929084 3.6523438 20.628906 C 3.5113437 20.925906 3.5310312 21.274734 3.7070312 21.552734 C 3.8820312 21.830734 4.1885781 22 4.5175781 22 L 5.3945312 22 C 5.7645313 22 6.1017656 21.786125 6.2597656 21.453125 C 6.6991307 20.530289 8.1852016 17.408454 9.3320312 15 L 13 15 L 13 15.681641 C 13 15.931641 13.141234 16.159484 13.365234 16.271484 C 13.588234 16.383484 13.854688 16.358984 14.054688 16.208984 C 14.762688 15.677984 15.675875 14.992344 16.296875 14.527344 C 16.462875 14.402344 16.560547 14.208 16.560547 14 C 16.560547 13.792 16.462875 13.597656 16.296875 13.472656 C 15.675875 13.007656 14.762688 12.322016 14.054688 11.791016 C 13.854688 11.641016 13.588234 11.616516 13.365234 11.728516 C 13.141234 11.840516 13 12.068359 13 12.318359 L 13 13 L 10.285156 13 C 11.376678 10.707734 11.985185 9.4298961 13 7.2988281 L 13 10.806641 C 13.546 10.569641 14.175297 10.631234 14.654297 10.990234 L 16 11.998047 L 16 4.5 C 18.677812 5.9304329 20.5 8.7504512 20.5 12 C 20.5 16.696347 16.696347 20.5 12 20.5 C 11.005351 20.5 10.051475 20.329029 9.1660156 20.015625 A 0.50005 0.50005 0 1 0 8.8339844 20.958984 C 9.8245246 21.309581 10.890649 21.5 12 21.5 C 17.237653 21.5 21.5 17.237653 21.5 12 C 21.5 8.19277 19.241788 4.9105802 16 3.3964844 L 16 2.0234375 C 16 1.4584375 15.541562 1 14.976562 1 L 14.412109 1 L 13.632812 1 z M 16 16.001953 L 14.654297 17.009766 C 14.188297 17.359766 13.580922 17.422031 13.044922 17.207031 C 13.147922 17.657031 13.530719 18 14.011719 18 L 14.988281 18 C 15.547281 18 16 17.547281 16 16.988281 L 16 16.001953 z"></path>
</svg>